<svg xmlns="http://www.w3.org/2000/svg" viewBox="0 0 32 32" fill="none">
  <!-- Background -->
  <rect width="32" height="32" rx="6" fill="#0F172A"/>
  <!-- Left claw (simplified) -->
  <path d="M8 20 C8 15, 10 11, 13 9 C14 7.5, 15 7.5, 15 9.5 C15 11, 14.5 12.5, 14 14 C17.5 11, 19 10, 19.5 11 C20 12, 18 14, 15 18 L13 20 Z" fill="#DC2626"/>
  <!-- Right claw (simplified) -->
  <path d="M24 20 C24 15, 22 11, 19 9 C18 7.5, 17 7.5, 17 9.5 C17 11, 17.5 12.5, 18 14 C14.5 11, 13 10, 12.5 11 C12 12, 14 14, 17 18 L19 20 Z" fill="#DC2626"/>
  <!-- Body -->
  <ellipse cx="16" cy="23" rx="6" ry="4" fill="#DC2626"/>
  <!-- Eyes -->
  <circle cx="14" cy="22" r="1.2" fill="#FBBF24"/>
  <circle cx="18" cy="22" r="1.2" fill="#FBBF24"/>
</svg>
