<svg xmlns="http://www.w3.org/2000/svg" viewBox="0 0 512 512" fill="none">
  <defs>
    <linearGradient id="clawGrad" x1="0%" y1="0%" x2="100%" y2="100%">
      <stop offset="0%" style="stop-color:#DC2626"/>
      <stop offset="100%" style="stop-color:#EA580C"/>
    </linearGradient>
    <linearGradient id="innerGrad" x1="0%" y1="0%" x2="100%" y2="100%">
      <stop offset="0%" style="stop-color:#B91C1C"/>
      <stop offset="100%" style="stop-color:#C2410C"/>
    </linearGradient>
  </defs>
  <!-- Background circle -->
  <circle cx="256" cy="256" r="240" fill="#0F172A" stroke="url(#clawGrad)" stroke-width="6"/>
  <!-- Left claw -->
  <path d="M130 320 C130 240, 160 180, 200 140 C220 118, 240 120, 240 150 C240 170, 230 200, 220 230 C280 180, 300 160, 310 180 C320 200, 290 240, 240 290 L200 320 Z" fill="url(#clawGrad)"/>
  <!-- Right claw -->
  <path d="M382 320 C382 240, 352 180, 312 140 C292 118, 272 120, 272 150 C272 170, 282 200, 292 230 C232 180, 212 160, 202 180 C192 200, 222 240, 272 290 L312 320 Z" fill="url(#clawGrad)"/>
  <!-- Body -->
  <ellipse cx="256" cy="360" rx="90" ry="60" fill="url(#clawGrad)"/>
  <!-- Body detail -->
  <ellipse cx="256" cy="355" rx="70" ry="45" fill="url(#innerGrad)"/>
  <!-- Eyes -->
  <circle cx="230" cy="335" r="12" fill="#1E293B"/>
  <circle cx="282" cy="335" r="12" fill="#1E293B"/>
  <circle cx="233" cy="332" r="5" fill="#FBBF24"/>
  <circle cx="285" cy="332" r="5" fill="#FBBF24"/>
  <!-- Suspicious eye highlight -->
  <circle cx="235" cy="330" r="2" fill="#FEF3C7"/>
  <circle cx="287" cy="330" r="2" fill="#FEF3C7"/>
</svg>
